<svg width="256" height="256" viewBox="0 0 256 256" fill="none" xmlns="http://www.w3.org/2000/svg">
<rect width="256" height="256" rx="48" fill="black"/>
<path d="M104.864 88.912C103.499 88.7413 101.92 88.656 100.128 88.656C98.4213 88.656 96.288 88.8267 93.728 89.168C91.2533 89.5093 88.6507 90.064 85.92 90.832C83.2747 91.5147 81.0987 92.624 79.392 94.16C77.6853 95.696 76.832 97.5733 76.832 99.792C76.832 101.925 78.112 103.845 80.672 105.552C83.3173 107.173 86.4747 108.709 90.144 110.16C93.8133 111.525 97.4827 113.104 101.152 114.896C104.907 116.688 108.064 119.333 110.624 122.832C113.269 126.245 114.592 130.384 114.592 135.248C114.592 143.867 110.453 151.205 102.176 157.264C93.984 163.237 83.616 166.224 71.072 166.224C64.7573 166.224 60.064 165.883 56.992 165.2C56.224 164.432 55.84 159.867 55.84 151.504C55.84 143.056 56.0107 137.979 56.352 136.272C56.608 135.504 58.1013 134.565 60.832 133.456C63.5627 132.347 66.208 131.792 68.768 131.792C68.768 141.861 69.8347 147.963 71.968 150.096C72.8213 150.949 74.4427 151.376 76.832 151.376C82.2933 151.376 87.0293 149.84 91.04 146.768C95.136 143.696 97.184 140.069 97.184 135.888C97.184 133.072 95.8613 130.597 93.216 128.464C90.5707 126.331 87.328 124.496 83.488 122.96C79.7333 121.339 75.9787 119.675 72.224 117.968C68.4693 116.176 65.2693 113.744 62.624 110.672C59.9787 107.6 58.656 103.973 58.656 99.792C58.656 93.5627 62.368 87.888 69.792 82.768C77.3013 77.5627 88.1387 74.96 102.304 74.96C105.632 74.96 107.509 75.1733 107.936 75.6C108.021 75.856 108.064 76.496 108.064 77.52C108.064 78.4587 107.765 80.336 107.168 83.152C106.571 85.968 105.803 87.888 104.864 88.912ZM131.863 85.584C134.252 85.584 136.172 86.352 137.623 87.888C139.074 89.424 139.799 91.4293 139.799 93.904C139.799 96.3787 138.818 98.512 136.855 100.304C134.978 102.011 132.844 102.864 130.455 102.864C128.151 102.864 126.274 102.139 124.823 100.688C123.458 99.152 122.775 97.1467 122.775 94.672C122.775 92.1973 123.714 90.064 125.591 88.272C127.468 86.48 129.559 85.584 131.863 85.584ZM138.391 117.456L138.135 138.192C138.135 144.848 138.306 149.755 138.647 152.912C139.074 155.984 140.183 158.885 141.975 161.616C141.975 162.469 140.226 163.835 136.727 165.712C133.228 167.589 130.242 168.528 127.767 168.528C126.999 168.528 126.231 167.248 125.463 164.688C124.695 162.128 124.183 159.696 123.927 157.392C123.756 155.088 123.671 147.323 123.671 134.096C123.671 120.869 123.97 113.659 124.567 112.464C126.53 110.928 129.986 110.16 134.935 110.16C136.898 110.16 138.092 110.416 138.519 110.928L138.391 117.456ZM197.748 130.256L198.004 160.592C198.004 167.248 197.108 173.136 195.316 178.256C193.524 183.461 191.348 187.472 188.788 190.288C186.228 193.189 183.284 195.536 179.956 197.328C174.58 200.315 169.161 201.808 163.7 201.808C163.444 201.808 162.932 201.168 162.164 199.888C161.396 198.608 160.671 196.859 159.988 194.64C159.305 192.421 158.964 190.373 158.964 188.496H161.396C163.103 188.496 164.724 188.325 166.26 187.984C167.881 187.728 169.844 186.917 172.148 185.552C174.452 184.187 176.415 182.395 178.036 180.176C179.657 177.957 181.065 174.672 182.26 170.32C183.455 165.968 184.052 160.891 184.052 155.088C184.052 154.747 184.009 154.576 183.924 154.576L183.54 154.96C179.956 160.507 174.367 163.28 166.772 163.28C161.055 163.28 156.489 161.019 153.076 156.496C149.663 151.973 147.956 146.896 147.956 141.264C147.956 131.024 151.241 122.576 157.812 115.92C164.383 109.264 173.812 105.936 186.1 105.936C189.087 105.936 190.58 106.149 190.58 106.576C190.836 108.027 190.964 109.605 190.964 111.312L190.836 113.232H192.244C194.975 113.232 196.809 113.488 197.748 114V130.256ZM183.796 119.504L181.108 119.12C175.647 119.12 171.295 120.912 168.052 124.496C164.895 127.995 163.316 132.389 163.316 137.68C163.316 140.325 164.084 142.629 165.62 144.592C167.241 146.555 169.545 147.536 172.532 147.536C175.604 147.536 178.164 146.341 180.212 143.952C182.26 141.563 183.284 139.643 183.284 138.192C183.284 128.464 183.455 122.235 183.796 119.504Z" fill="white"/>
</svg>
